<svg xmlns="http://www.w3.org/2000/svg" viewBox="0 0 510.65 333.39"><defs><style>.cls-1{fill:#fff;}.cls-2{fill:#1d2856;}.cls-3{fill:#e76a35;}.cls-4{fill:none;}</style></defs><title>Logo</title><g id="Capa_4" data-name="Capa 4"><path class="cls-1" d="M67.71,329.91a3,3,0,0,1-2.89-2.23c-.76-2.83-1.48-5.62-2.19-8.39-1.54-6-3-11.62-4.68-17.26-10.74-35.93-25.42-65.32-44.86-89.84a102.71,102.71,0,0,0-6.88-7.82,5.8,5.8,0,0,1-1.15-7.05C17,170.51,25.46,145.76,31,121.66a180.77,180.77,0,0,0,4.82-36.37A12.67,12.67,0,0,1,35.9,84c0-.17.05-.36.07-.56a3,3,0,0,1,3-2.67H71.31a3,3,0,0,1,3,3v94.53a3,3,0,0,1-3,3h-.16A13.51,13.51,0,0,0,68.54,208,3,3,0,0,1,71,211q0,41.14,0,82.28v31.88a9.62,9.62,0,0,1-.15,1.46c0,.2-.07.44-.11.73a3,3,0,0,1-2.78,2.59Z"/><path class="cls-1" d="M71.31,83.74v94.53h-.1A16.51,16.51,0,0,0,68,211q0,57.09,0,114.16c0,.46-.12.91-.23,1.79-2.37-8.88-4.39-17.38-6.89-25.74-9.85-32.91-23.9-63.75-45.39-90.85a105.71,105.71,0,0,0-7.08-8c-1.22-1.26-1.25-2.2-.56-3.74,11-24.62,20.08-49.89,26.09-76.22a184.84,184.84,0,0,0,4.89-37c0-.47.1-.94.17-1.61H71.31m0-6H39a6,6,0,0,0-6,5.33c0,.19,0,.35-.06.5a12.12,12.12,0,0,0-.15,1.65A177.68,177.68,0,0,1,28,121c-5.46,23.92-13.87,48.49-25.72,75.11a8.78,8.78,0,0,0,1.74,10.36c2.4,2.48,4.65,5,6.68,7.59,19.2,24.22,33.7,53.28,44.34,88.84,1.67,5.59,3.12,11.2,4.65,17.15.7,2.74,1.43,5.57,2.19,8.41a6,6,0,0,0,5.79,4.46h.39a6,6,0,0,0,5.56-5.2c0-.25.07-.47.1-.65a11.23,11.23,0,0,0,.19-1.93V292.45q0-40.74,0-81.49a6,6,0,0,0-4.82-5.88,10.51,10.51,0,0,1,2-20.81h.22a6,6,0,0,0,6-6V83.74a6,6,0,0,0-6-6Z"/><path class="cls-1" d="M74.53,330a3,3,0,0,1-3-3V210.71a3,3,0,0,1,3-3h3.3V204.6a3,3,0,0,1,3-3h.84l.42,0h2.17V188.29H80.83a3,3,0,0,1-3-3v-4H71.31a3,3,0,0,1-3-3V83.72a3,3,0,0,1,3-3h32.13a3,3,0,0,1,3,3V105h3.42a3,3,0,0,1,3,3v29.2h3.43a3,3,0,0,1,3,3v16.32h3.42a3,3,0,0,1,3,3v16.32h3.43a3,3,0,0,1,3,3v9.87h3.42a3,3,0,0,1,3,3V204.6a3,3,0,0,1-3,3h-3.42V211a3,3,0,0,1-3,3h-3.43v9.88a3,3,0,0,1-3,3h-3.42v3.44a3,3,0,0,1-3,3h-3.43v9.88a3,3,0,0,1-3,3h-3.42v9.88a3,3,0,0,1-3,3H100V269a3,3,0,0,1-3,3H93.59v12.52a3,3,0,0,1-3,3H87.16V298.7a3,3,0,0,1-3,3H82.77V327a3,3,0,0,1-3,3Z"/><path class="cls-1" d="M103.44,83.72V108h6.42v32.2h6.43v19.32h6.42v19.32h6.43v12.87h6.42V204.6h-6.42V211h-6.43v12.88h-6.42v6.44h-6.43v12.88h-6.42v12.88H97V269H90.59v15.52H84.16v14.19H79.77V327H74.53V210.71h6.3V204.6h1.26v0h5.17V185.29H80.83v-4.55h0v-2.48H71.31V83.72h32.13m0-6H71.31a6,6,0,0,0-6,6v94.54a6,6,0,0,0,6,6h3.52v1a6,6,0,0,0,6,6h.43v7.31h-.43a6,6,0,0,0-6,6v.11h-.3a6,6,0,0,0-6,6V327a6,6,0,0,0,6,6h5.24a6,6,0,0,0,6-6V304.49a6,6,0,0,0,4.39-5.78v-8.19h.43a6,6,0,0,0,6-6V275H97a6,6,0,0,0,6-6v-6.88h.43a6,6,0,0,0,6-6v-6.88h.42a6,6,0,0,0,6-6v-6.88h.43a6,6,0,0,0,6-6v-.44h.42a6,6,0,0,0,6-6V217h.43a6,6,0,0,0,6-6v-.44h.42a6,6,0,0,0,6-6V191.72a6,6,0,0,0-6-6h-.42v-6.87a6,6,0,0,0-6-6h-.43V159.53a6,6,0,0,0-6-6h-.42V140.21a6,6,0,0,0-6-6h-.43V108a6,6,0,0,0-6-6h-.42V83.72a6,6,0,0,0-6-6Z"/><path class="cls-1" d="M71.31,81H31.42a3,3,0,0,1-3-3V43.64a3,3,0,0,1,3-3H94.78a3,3,0,0,1,3,3V55.46h13.33a3,3,0,0,1,3,3V78a3,3,0,0,1-3,3Z"/><path class="cls-1" d="M94.78,43.64V58.46h16.33V78H31.42V43.64H94.78m0-6H31.42a6,6,0,0,0-6,6V78a6,6,0,0,0,6,6h79.69a6,6,0,0,0,6-6V58.46a6,6,0,0,0-6-6H100.78V43.64a6,6,0,0,0-6-6Z"/><rect class="cls-1" x="98.8" y="27.87" width="25.64" height="25.64" rx="3"/><path class="cls-1" d="M121.44,30.87V50.51H101.8V30.87h19.64m0-6H101.8a6,6,0,0,0-6,6V50.51a6,6,0,0,0,6,6h19.64a6,6,0,0,0,6-6V30.87a6,6,0,0,0-6-6Z"/><rect class="cls-1" x="124.24" y="49.73" width="18.77" height="18.77" rx="3"/><path class="cls-1" d="M140,52.73V65.51H127.24V52.73H140m0-6H127.24a6,6,0,0,0-6,6V65.51a6,6,0,0,0,6,6H140a6,6,0,0,0,6-6V52.73a6,6,0,0,0-6-6Z"/><rect class="cls-1" x="126.7" y="154.64" width="16.96" height="16.96" rx="3"/><path class="cls-1" d="M140.66,157.64v11h-11v-11h11m0-6h-11a6,6,0,0,0-6,6v11a6,6,0,0,0,6,6h11a6,6,0,0,0,6-6v-11a6,6,0,0,0-6-6Z"/><rect class="cls-1" x="138.45" y="133.27" width="18.91" height="18.91" rx="3"/><path class="cls-1" d="M154.35,136.27v12.91h-12.9V136.27h12.9m0-6h-12.9a6,6,0,0,0-6,6v12.91a6,6,0,0,0,6,6h12.9a6,6,0,0,0,6-6V136.27a6,6,0,0,0-6-6Z"/><rect class="cls-1" x="120.15" y="117.26" width="14.18" height="14.18" rx="3"/><path class="cls-1" d="M131.33,120.26v8.18h-8.18v-8.18h8.18m0-6h-8.18a6,6,0,0,0-6,6v8.18a6,6,0,0,0,6,6h8.18a6,6,0,0,0,6-6v-8.18a6,6,0,0,0-6-6Z"/><rect class="cls-1" x="130.65" y="3.82" width="18.72" height="18.72" rx="3"/><path class="cls-1" d="M146.38,6.82V19.55H133.65V6.82h12.73m0-6H133.65a6,6,0,0,0-6,6V19.55a6,6,0,0,0,6,6h12.73a6,6,0,0,0,6-6V6.82a6,6,0,0,0-6-6Z"/><rect class="cls-1" x="117.07" y="13.28" width="14.13" height="14.13" rx="3"/><path class="cls-1" d="M128.2,16.28v8.13h-8.13V16.28h8.13m0-6h-8.13a6,6,0,0,0-6,6v8.13a6,6,0,0,0,6,6h8.13a6,6,0,0,0,6-6V16.28a6,6,0,0,0-6-6Z"/><path class="cls-1" d="M317.16,218.89c-5.45,0-9.88-1.51-13.17-4.51s-5.1-7.55-5.1-13.34a20.77,20.77,0,0,1,2.83-10.91c.2-.32.41-.64.63-.95a16.17,16.17,0,0,1,4.37-4.32,19.34,19.34,0,0,1-2.51-8.76,12.27,12.27,0,0,1,4.21-9.85c2.64-2.24,6.49-3.37,11.43-3.37a33.14,33.14,0,0,1,7.54.77,6,6,0,0,1,3,1.61,5,5,0,0,1,1.21,3.52v4.35a4.31,4.31,0,0,1-4.41,4.6,7,7,0,0,1-1.25-.13,18.86,18.86,0,0,0-3.7-.43,7.38,7.38,0,0,0-2.31.26.41.41,0,0,0,0,.12,5.24,5.24,0,0,0,1,2.61l4.84,8.06a4.56,4.56,0,0,1,4.21-2.34h5c.87,0,3.77.3,4.65,4.13a1.29,1.29,0,0,1,0,.19l0,.24a29.3,29.3,0,0,1,.22,4.12,24.94,24.94,0,0,1-3.11,12.18l3.21,5.35a4.14,4.14,0,0,1,.45,3.85,3.88,3.88,0,0,1-3.76,2.4h-7a5,5,0,0,1-3.63-1.5A19.5,19.5,0,0,1,317.16,218.89Z"/><path class="cls-1" d="M319.85,165.88a29.79,29.79,0,0,1,6.84.69,3,3,0,0,1,1.45.73,2.13,2.13,0,0,1,.42,1.48v4.35c0,1.07-.47,1.6-1.41,1.6a3.47,3.47,0,0,1-.67-.08,22.28,22.28,0,0,0-4.28-.48,7.85,7.85,0,0,0-4.07.79,2.84,2.84,0,0,0-1.25,2.59,8.18,8.18,0,0,0,1.47,4.21l5.47,9.13,4.27,7.13a14.18,14.18,0,0,0,.54-3.77,12.89,12.89,0,0,0-.21-2c-.09-.55-.15-1-.18-1.34a4.54,4.54,0,0,1,0-.47c0-1,.58-1.54,1.73-1.54h5c.88,0,1.45.6,1.73,1.8a1.36,1.36,0,0,1,0,.21,27.23,27.23,0,0,1,.19,3.67,21.89,21.89,0,0,1-3.61,12.18l4.16,6.94a1.19,1.19,0,0,1,.21,1.14.92.92,0,0,1-1,.52h-7a2.14,2.14,0,0,1-1.93-1.17l-.9-1.32a16.2,16.2,0,0,1-9.74,3q-7.05,0-11.16-3.73T301.89,201a17.7,17.7,0,0,1,2.4-9.35c.17-.28.34-.54.52-.8a13.13,13.13,0,0,1,6.05-4.83l-.95-1.6q-2.7-4.83-2.7-8.36a9.36,9.36,0,0,1,3.14-7.56q3.15-2.65,9.5-2.66m0-6c-5.67,0-10.17,1.37-13.37,4.08-2.4,2-5.27,5.79-5.27,12.14A20.1,20.1,0,0,0,303,184a19.38,19.38,0,0,0-3.1,3.51c-.2.29-.46.68-.72,1.11A23.71,23.71,0,0,0,295.89,201c0,6.67,2.05,11.91,6.08,15.57,3.87,3.51,9,5.28,15.19,5.28a22.86,22.86,0,0,0,8.56-1.59,8,8,0,0,0,4,1h7a6.87,6.87,0,0,0,6.54-4.28,7.18,7.18,0,0,0-.68-6.55l-2.33-3.89a27.84,27.84,0,0,0,2.68-12.06,32.72,32.72,0,0,0-.24-4.47c0-.15,0-.28-.05-.39s-.05-.24-.08-.36c-.9-3.92-3.87-6.46-7.57-6.46h-5a8.33,8.33,0,0,0-3.48.73l-1.93-3.22.78.15a9.91,9.91,0,0,0,1.84.19,7.26,7.26,0,0,0,7.41-7.6v-4.35a8,8,0,0,0-2-5.55,8.72,8.72,0,0,0-4.32-2.46l-.16,0a36.28,36.28,0,0,0-8.23-.85Z"/><path class="cls-1" d="M167.69,146.9a3,3,0,0,1-3-3v-.58a3,3,0,0,1,3-3,24.28,24.28,0,0,0,5.5-.49,4.07,4.07,0,0,0,2.11-1.12,4.62,4.62,0,0,0,1-2.31,29.94,29.94,0,0,0,.39-5.39V55.45a31.32,31.32,0,0,0-.39-5.47,4.28,4.28,0,0,0-1-2.23,4.36,4.36,0,0,0-2.16-1.11,24.41,24.41,0,0,0-5.5-.49,3,3,0,0,1-3-3v-.58a3,3,0,0,1,3-3h41.83a31.51,31.51,0,0,1,12.71,2.5A29.57,29.57,0,0,1,232,48.91a30.63,30.63,0,0,1,6.34,10.26,35.07,35.07,0,0,1,2.23,12.5,34,34,0,0,1-2.8,14,31.85,31.85,0,0,1-7.59,10.61A33.55,33.55,0,0,1,219,103a40,40,0,0,1-13.77,2.35,43.58,43.58,0,0,1-4.49-.23c-1.49-.15-2.91-.32-4.23-.51V131a31,31,0,0,0,.38,5.39,4.63,4.63,0,0,0,1,2.3,4,4,0,0,0,2.11,1.13,24.28,24.28,0,0,0,5.5.49,3,3,0,0,1,3,3v.58a3,3,0,0,1-3,3Zm29.1-48.85a2.89,2.89,0,0,1,.5,0c.49.09,1,.15,1.43.19s.89.06,1.4.06A15.27,15.27,0,0,0,209,95.9a21.38,21.38,0,0,0,6.28-6.74,32.35,32.35,0,0,0,3.78-9.42,44.64,44.64,0,0,0,1.23-10.1,45.49,45.49,0,0,0-.82-8.28,27.93,27.93,0,0,0-2.61-7.71,15.72,15.72,0,0,0-4.64-5.49,10.82,10.82,0,0,0-6.74-2,24.41,24.41,0,0,0-5.5.49,4.44,4.44,0,0,0-2.17,1.11,4.36,4.36,0,0,0-1,2.23,32.48,32.48,0,0,0-.38,5.47V98.07Z"/><path class="cls-1" d="M209.52,42.57A28.38,28.38,0,0,1,221,44.82,26.47,26.47,0,0,1,229.86,51a27.42,27.42,0,0,1,5.72,9.26,32.06,32.06,0,0,1,2,11.44,30.8,30.8,0,0,1-2.54,12.74A29,29,0,0,1,228.2,94a30.35,30.35,0,0,1-10.28,6.15,36.74,36.74,0,0,1-12.74,2.17q-2,0-4.2-.21c-1.44-.15-2.84-.32-4.19-.51v-.58c.58.1,1.13.17,1.66.22s1.09.07,1.67.07a18.26,18.26,0,0,0,10.56-3,24.08,24.08,0,0,0,7.17-7.67A35.55,35.55,0,0,0,222,80.42a47.22,47.22,0,0,0,1.31-10.78,47.88,47.88,0,0,0-.87-8.83,30.85,30.85,0,0,0-2.9-8.54,18.83,18.83,0,0,0-5.5-6.51,13.79,13.79,0,0,0-8.54-2.61,27,27,0,0,0-6.22.58,7.34,7.34,0,0,0-3.62,2,7.24,7.24,0,0,0-1.74,3.77,34.44,34.44,0,0,0-.43,6V131a33.19,33.19,0,0,0,.43,5.94,7.56,7.56,0,0,0,1.74,3.76,7,7,0,0,0,3.62,2,26.42,26.42,0,0,0,6.22.58v.58H167.69v-.58a26.51,26.51,0,0,0,6.23-.58,7,7,0,0,0,3.61-2,7.56,7.56,0,0,0,1.74-3.76,33.07,33.07,0,0,0,.44-5.94V55.46a34.32,34.32,0,0,0-.44-6,6.53,6.53,0,0,0-5.35-5.72,27.06,27.06,0,0,0-6.23-.58v-.58h41.83m0-6H167.69a6,6,0,0,0-6,6v.58a6,6,0,0,0,6,6,20.78,20.78,0,0,1,4.77.4,2.83,2.83,0,0,1,.7.26,3,3,0,0,1,.21.71,29.25,29.25,0,0,1,.34,4.94V131a25.82,25.82,0,0,1-.34,4.83,1.82,1.82,0,0,1-.29.85h0a2.17,2.17,0,0,1-.62.23,20.78,20.78,0,0,1-4.77.4,6,6,0,0,0-6,6v.58a6,6,0,0,0,6,6h37.78a6,6,0,0,0,6-6v-.58a6,6,0,0,0-6-6,20.59,20.59,0,0,1-4.76-.4,2,2,0,0,1-.64-.24h0a2.1,2.1,0,0,1-.28-.84,27.1,27.1,0,0,1-.33-4.83V108l.93.1c1.64.16,3.25.24,4.79.24a43,43,0,0,0,14.8-2.53,36.67,36.67,0,0,0,12.27-7.37,35,35,0,0,0,8.3-11.59,36.9,36.9,0,0,0,3.06-15.19,38.26,38.26,0,0,0-2.42-13.56,33.45,33.45,0,0,0-7-11.26,32.83,32.83,0,0,0-10.78-7.53,34.65,34.65,0,0,0-13.92-2.75ZM200,49.8a3.22,3.22,0,0,1,.7-.25,20.78,20.78,0,0,1,4.77-.4,7.94,7.94,0,0,1,4.94,1.41A13,13,0,0,1,214.19,55a25.19,25.19,0,0,1,2.32,6.89,42,42,0,0,1,.77,7.72,41.56,41.56,0,0,1-1.15,9.42,29.64,29.64,0,0,1-3.43,8.55,18.16,18.16,0,0,1-5.4,5.81,12.36,12.36,0,0,1-7.18,1.92h-.66V55.46a29.41,29.41,0,0,1,.33-4.94,2.94,2.94,0,0,1,.21-.72Z"/><path class="cls-1" d="M273.94,147.19a26.41,26.41,0,0,1-7.34-1,19.28,19.28,0,0,1-6.42-3.17,15.9,15.9,0,0,1-4.63-5.61,17.39,17.39,0,0,1-1.69-7.85V85a57.77,57.77,0,0,0-.27-6.24,4.4,4.4,0,0,0-.77-2.32,3.54,3.54,0,0,0-1.93-.87,31.37,31.37,0,0,0-6-.45,3,3,0,0,1-3-3v-.58a3,3,0,0,1,3-3h17.08a12.28,12.28,0,0,1,8.35,2.77c2.21,1.94,3.34,4.8,3.34,8.48v49.36a11.18,11.18,0,0,0,2.08,6.9c.77,1,2.2,2.41,5.77,2.41a13,13,0,0,0,6.7-2.11A10.89,10.89,0,0,0,292.5,132V85a57.51,57.51,0,0,0-.27-6.24,4.34,4.34,0,0,0-.76-2.32,3.54,3.54,0,0,0-1.93-.87,31.37,31.37,0,0,0-6.05-.45,3,3,0,0,1-3-3v-.58a3,3,0,0,1,3-3h17.08a12.26,12.26,0,0,1,8.34,2.77c2.22,1.94,3.35,4.8,3.35,8.48v52.4c0,4.38.85,6.1,1.36,6.74.27.33,1.49,1.41,6.2,1.41a24.28,24.28,0,0,0,5.5-.49,4.16,4.16,0,0,0,2.11-1.12,4.66,4.66,0,0,0,1-2.31,30.08,30.08,0,0,0,.38-5.39V85a57.77,57.77,0,0,0-.27-6.24,4.34,4.34,0,0,0-.76-2.32,3.54,3.54,0,0,0-1.93-.87,31.37,31.37,0,0,0-6.05-.45,3,3,0,0,1-3-3v-.58a3,3,0,0,1,3-3h17.23a11.6,11.6,0,0,1,8.38,3,9.54,9.54,0,0,1,2,2.7,28.24,28.24,0,0,1,6.77-3.57,35.88,35.88,0,0,1,12.56-2.44,27.92,27.92,0,0,1,8.19,1.22,21.35,21.35,0,0,1,7.23,3.79,19.78,19.78,0,0,1,5.11,6.3,18.33,18.33,0,0,1,2,8.63V131a30.83,30.83,0,0,0,.38,5.38,4.67,4.67,0,0,0,1,2.31,4.09,4.09,0,0,0,2.11,1.13,24.28,24.28,0,0,0,5.5.49,3,3,0,0,1,3,3v.58a3,3,0,0,1-3,3H360.49a3.05,3.05,0,0,1-1.44-.37,3.09,3.09,0,0,1-1.45.37H295.5a3,3,0,0,1-3-3v-2.16a28.17,28.17,0,0,1-5.18,2.83,33.29,33.29,0,0,1-6.77,2A37,37,0,0,1,273.94,147.19Zm74.65-14.87c0,4.72,1.09,6.11,1.56,6.5.69.56,2.58,1.5,7.45,1.5a3,3,0,0,1,1.45.37,2.94,2.94,0,0,1,1.44-.37,14.62,14.62,0,0,0,5.74-.83,4.18,4.18,0,0,0,2.11-1.78,9.44,9.44,0,0,0,1-3.8c.14-1.91.21-4.1.21-6.51V88.6a19.25,19.25,0,0,0-.57-4.57,12.2,12.2,0,0,0-1.68-3.9,8.85,8.85,0,0,0-2.76-2.65,6.92,6.92,0,0,0-3.72-.93,16.11,16.11,0,0,0-7,1.86,18.2,18.2,0,0,0-5.2,3.65Z"/><path class="cls-1" d="M366.72,71.23A24.66,24.66,0,0,1,374,72.32a18.12,18.12,0,0,1,6.22,3.26,16.88,16.88,0,0,1,4.35,5.35,15.54,15.54,0,0,1,1.66,7.24V131a33.19,33.19,0,0,0,.43,5.94,7.56,7.56,0,0,0,1.74,3.76,7,7,0,0,0,3.62,2,26.42,26.42,0,0,0,6.22.58v.58H360.49v-.58a17.61,17.61,0,0,0,6.95-1.09,7.11,7.11,0,0,0,3.55-3.11,12.39,12.39,0,0,0,1.3-5q.22-3,.22-6.73V88.6a22.56,22.56,0,0,0-.65-5.28,15.42,15.42,0,0,0-2.1-4.85,11.91,11.91,0,0,0-3.69-3.55,10,10,0,0,0-5.29-1.37,18.89,18.89,0,0,0-8.32,2.17,19.93,19.93,0,0,0-6.87,5.21v51.39q0,6.66,2.67,8.83c1.79,1.44,4.9,2.17,9.34,2.17v.58H295.5v-9.85a14,14,0,0,1-3.9,4.64,24.62,24.62,0,0,1-5.43,3.11,30.29,30.29,0,0,1-6.16,1.81,34.45,34.45,0,0,1-6.07.58,23.62,23.62,0,0,1-6.52-.87,16.42,16.42,0,0,1-5.43-2.68,12.77,12.77,0,0,1-3.76-4.56,14.34,14.34,0,0,1-1.37-6.51V85a61,61,0,0,0-.29-6.58,7.32,7.32,0,0,0-1.45-3.91,6.18,6.18,0,0,0-3.62-1.88,34.3,34.3,0,0,0-6.66-.51v-.58h17.08a9.35,9.35,0,0,1,6.37,2c1.54,1.35,2.32,3.43,2.32,6.22v49.36a14.23,14.23,0,0,0,2.67,8.69c1.79,2.41,4.51,3.62,8.18,3.62a15.92,15.92,0,0,0,8.25-2.54,13.54,13.54,0,0,0,5.79-6.29V85a58.47,58.47,0,0,0-.29-6.58,7.23,7.23,0,0,0-1.44-3.91,6.21,6.21,0,0,0-3.62-1.88,34.3,34.3,0,0,0-6.66-.51v-.58h17.08a9.37,9.37,0,0,1,6.37,2c1.54,1.35,2.32,3.43,2.32,6.22v52.4q0,6.09,2,8.62c1.35,1.68,4.2,2.53,8.54,2.53a26.36,26.36,0,0,0,6.22-.58,6.92,6.92,0,0,0,3.62-2A7.56,7.56,0,0,0,331.4,137a33.19,33.19,0,0,0,.43-5.94V85a58.47,58.47,0,0,0-.29-6.58,7.23,7.23,0,0,0-1.44-3.91,6.21,6.21,0,0,0-3.62-1.88,34.3,34.3,0,0,0-6.66-.51v-.58h17.23a8.71,8.71,0,0,1,6.29,2.17,8.27,8.27,0,0,1,2.25,6.23,23,23,0,0,1,9.62-6.44,32.76,32.76,0,0,1,11.51-2.25m0-6a39,39,0,0,0-13.61,2.63,33.64,33.64,0,0,0-4.88,2.27q-.36-.41-.72-.75a14.49,14.49,0,0,0-10.46-3.86H319.82a6,6,0,0,0-6,6v.58a6.27,6.27,0,0,0,.08,1,12,12,0,0,0-3-4,15.14,15.14,0,0,0-10.32-3.52H283.49a6,6,0,0,0-6,6v.58a6,6,0,0,0,6,6,27.73,27.73,0,0,1,5.45.39,1,1,0,0,1,.22.05,3.74,3.74,0,0,1,.09.54,54,54,0,0,1,.25,5.9v46.18a8.65,8.65,0,0,1-2.89,2.61,10.2,10.2,0,0,1-5.15,1.67c-2.47,0-3.09-.83-3.35-1.19a8.29,8.29,0,0,1-1.5-5.12V79.77c0-5.71-2.37-9-4.36-10.73a15.17,15.17,0,0,0-10.33-3.52H244.84a6,6,0,0,0-6,6v.58a6,6,0,0,0,6,6,27.73,27.73,0,0,1,5.45.39l.23.05q0,.19.09.54a56.75,56.75,0,0,1,.25,5.9v44.59a20.28,20.28,0,0,0,2,9.2,18.81,18.81,0,0,0,5.5,6.65,22.5,22.5,0,0,0,7.4,3.67,29.75,29.75,0,0,0,8.17,1.1,40,40,0,0,0,7.14-.68,36.45,36.45,0,0,0,7.39-2.17c.56-.23,1.12-.48,1.67-.75a6,6,0,0,0,5.36,3.31h62.1a5.82,5.82,0,0,0,1.45-.18,5.74,5.74,0,0,0,1.44.18h37.78a6,6,0,0,0,6-6v-.58a6,6,0,0,0-6-6,20.66,20.66,0,0,1-4.76-.4,2.17,2.17,0,0,1-.64-.24h0a2.08,2.08,0,0,1-.28-.83,27.34,27.34,0,0,1-.33-4.84V88.17a21.35,21.35,0,0,0-2.35-10A22.73,22.73,0,0,0,384,70.92a24.35,24.35,0,0,0-8.24-4.34,31.18,31.18,0,0,0-9.07-1.35Zm-50.85,71.61a12.27,12.27,0,0,1-.61-4.67V79.77a17,17,0,0,0-.6-4.6,6,6,0,0,0,5.16,2.93,27.73,27.73,0,0,1,5.45.39,1,1,0,0,1,.22.05,3.74,3.74,0,0,1,.09.54,54.08,54.08,0,0,1,.25,5.9v46a27.19,27.19,0,0,1-.33,4.83,2,2,0,0,1-.29.85h0a2.17,2.17,0,0,1-.62.23,20.78,20.78,0,0,1-4.77.4,11.48,11.48,0,0,1-3.95-.48Zm35.72-53.49a16.53,16.53,0,0,1,3.52-2.24,13.08,13.08,0,0,1,5.67-1.56,4.11,4.11,0,0,1,2.16.49,5.91,5.91,0,0,1,1.83,1.76A9.27,9.27,0,0,1,366,84.74a16.31,16.31,0,0,1,.48,3.86v38.8c0,2.34-.07,4.46-.2,6.29a6.77,6.77,0,0,1-.61,2.6,1.65,1.65,0,0,1-.68.45,11.77,11.77,0,0,1-4.53.58,6.24,6.24,0,0,0-1.44.17,6.32,6.32,0,0,0-1.45-.17c-3.62,0-5.05-.57-5.44-.77a10.53,10.53,0,0,1-.57-4.23v-49Z"/><path class="cls-1" d="M426.5,147c-1.7,0-3.69-.07-5.92-.22a31.85,31.85,0,0,1-6.86-1.2,15.92,15.92,0,0,1-6.23-3.4,9.63,9.63,0,0,1-3.1-7.44V75.1h-7.56a3,3,0,0,1-3-3v-.58a3,3,0,0,1,3-3,22.86,22.86,0,0,0,7.23-1.22,23.71,23.71,0,0,0,6.68-3.47,19.25,19.25,0,0,0,4.89-5.32,13.08,13.08,0,0,0,1.94-6.63,3,3,0,0,1,3-2.9h.57a3,3,0,0,1,3,3V68.52h11.62a3,3,0,0,1,3,3v.58a3,3,0,0,1-3,3H424.14v55.48a24,24,0,0,0,.61,6.19,4.07,4.07,0,0,0,1.38,2.27,6.1,6.1,0,0,0,3.06,1,63.36,63.36,0,0,0,6.57.28,3,3,0,0,1,3,3v.58a3,3,0,0,1-3,3c-1.55,0-3.08,0-4.53.07C429.63,147,428,147,426.5,147Z"/><path class="cls-1" d="M421.14,52V71.52h14.62v.58H421.14v58.48a26.36,26.36,0,0,0,.73,7,7,7,0,0,0,2.46,3.84,9,9,0,0,0,4.56,1.59q2.82.28,6.87.29v.58c-1.54,0-3.08,0-4.63.07s-3.09.07-4.63.07-3.55-.07-5.72-.21a29.21,29.21,0,0,1-6.22-1.09,13,13,0,0,1-5.07-2.75,6.63,6.63,0,0,1-2.1-5.21V72.1H396.83v-.58A25.71,25.71,0,0,0,405,70.15a26.64,26.64,0,0,0,7.52-3.91,22.25,22.25,0,0,0,5.65-6.15A16.19,16.19,0,0,0,420.57,52h.57m0-6h-.57a6,6,0,0,0-6,5.81,10.1,10.1,0,0,1-1.49,5.14,16.27,16.27,0,0,1-4.13,4.5,20.5,20.5,0,0,1-5.84,3,19.82,19.82,0,0,1-6.28,1.07,6,6,0,0,0-6,6v.58a6,6,0,0,0,6,6h4.56v56.68a12.5,12.5,0,0,0,4.1,9.68,18.82,18.82,0,0,0,7.38,4,34.8,34.8,0,0,0,7.51,1.31c2.3.15,4.35.23,6.12.23,1.57,0,3.19,0,4.82-.07,1.43-.05,2.92-.07,4.44-.07a6,6,0,0,0,6-6v-.58a6,6,0,0,0-6-6c-2.5,0-4.6-.09-6.25-.26a3.33,3.33,0,0,1-1.58-.42h0a2,2,0,0,1-.29-.68,20.32,20.32,0,0,1-.5-5.38V78.1h8.62a6,6,0,0,0,6-6v-.58a6,6,0,0,0-6-6h-8.62V52a6,6,0,0,0-6-6Z"/><path class="cls-1" d="M470.94,147.33a36.14,36.14,0,0,1-15.31-3.17,34.52,34.52,0,0,1-11.56-8.64,38.23,38.23,0,0,1-7.23-12.64,47.64,47.64,0,0,1,0-30.34,38.23,38.23,0,0,1,7.23-12.64,34.52,34.52,0,0,1,11.56-8.64,38.53,38.53,0,0,1,30.61,0,34.59,34.59,0,0,1,11.57,8.64A38.38,38.38,0,0,1,505,92.54a47.64,47.64,0,0,1,0,30.34,38.58,38.58,0,0,1-7.23,12.64,34.46,34.46,0,0,1-11.57,8.64A36.06,36.06,0,0,1,470.94,147.33Zm1.59-72.66a10.52,10.52,0,0,0-8.14,3.51A30.26,30.26,0,0,0,458.47,88a60.57,60.57,0,0,0-3.24,12.48,77.28,77.28,0,0,0-1,11,74.12,74.12,0,0,0,.7,9.24,41.7,41.7,0,0,0,2.5,9.86A21.5,21.5,0,0,0,462.2,138a9.19,9.19,0,0,0,6.86,2.6,9.77,9.77,0,0,0,5.69-1.65,17.22,17.22,0,0,0,4.68-4.88,37.93,37.93,0,0,0,3.68-7.44,65.58,65.58,0,0,0,2.56-8.65,73.35,73.35,0,0,0,1.39-8.42,68.37,68.37,0,0,0,.42-6.93,68.5,68.5,0,0,0-.7-9.15,38,38,0,0,0-2.48-9.4,19.2,19.2,0,0,0-4.75-7A9.88,9.88,0,0,0,472.53,74.67Z"/><path class="cls-1" d="M470.94,71.09A32.91,32.91,0,0,1,485,74a31.37,31.37,0,0,1,10.57,7.89,35.43,35.43,0,0,1,6.66,11.65,44.74,44.74,0,0,1,0,28.38,35.43,35.43,0,0,1-6.66,11.65A31.37,31.37,0,0,1,485,141.44a35.55,35.55,0,0,1-28.08,0,31.37,31.37,0,0,1-10.57-7.89,35.43,35.43,0,0,1-6.66-11.65,44.74,44.74,0,0,1,0-28.38,35.43,35.43,0,0,1,6.66-11.65A31.37,31.37,0,0,1,456.9,74a32.91,32.91,0,0,1,14-2.89m-1.88,72.52a12.82,12.82,0,0,0,7.38-2.17,20.2,20.2,0,0,0,5.5-5.72,40.34,40.34,0,0,0,4-8,69.7,69.7,0,0,0,2.68-9,78.3,78.3,0,0,0,1.45-8.76,71.48,71.48,0,0,0,.43-7.24,72.58,72.58,0,0,0-.72-9.55A41.62,41.62,0,0,0,487.08,83a22.15,22.15,0,0,0-5.5-8,12.87,12.87,0,0,0-9.05-3.25,13.47,13.47,0,0,0-10.35,4.48,33.1,33.1,0,0,0-6.51,10.79,62.74,62.74,0,0,0-3.4,13.1,79.49,79.49,0,0,0-1,11.43,74.87,74.87,0,0,0,.73,9.63,44.65,44.65,0,0,0,2.67,10.57,24.44,24.44,0,0,0,5.43,8.46,12.15,12.15,0,0,0,9,3.48m1.88-78.52a39,39,0,0,0-16.57,3.45,37.41,37.41,0,0,0-12.57,9.4A41.16,41.16,0,0,0,434,91.55a50.6,50.6,0,0,0,0,32.32,41.16,41.16,0,0,0,7.8,13.62,37.38,37.38,0,0,0,12.56,9.39,41.52,41.52,0,0,0,33.14,0,37.38,37.38,0,0,0,12.56-9.39,41.33,41.33,0,0,0,7.8-13.62,50.6,50.6,0,0,0,0-32.32,41.33,41.33,0,0,0-7.79-13.61,37.54,37.54,0,0,0-12.57-9.4,39,39,0,0,0-16.57-3.45Zm-1.88,72.52a6,6,0,0,1-4.73-1.72,18.33,18.33,0,0,1-4.09-6.41,38.49,38.49,0,0,1-2.31-9.15,70.26,70.26,0,0,1-.68-8.86,74.32,74.32,0,0,1,.95-10.55,57,57,0,0,1,3.08-11.85,27.28,27.28,0,0,1,5.32-8.86,7.46,7.46,0,0,1,5.93-2.54,6.77,6.77,0,0,1,5,1.67,16.21,16.21,0,0,1,4,5.89,35.32,35.32,0,0,1,2.28,8.67,65.59,65.59,0,0,1,.67,8.74,64.93,64.93,0,0,1-.4,6.62,70,70,0,0,1-1.34,8.08,63.59,63.59,0,0,1-2.44,8.26,34.88,34.88,0,0,1-3.38,6.84,14.11,14.11,0,0,1-3.86,4,6.78,6.78,0,0,1-4,1.13Z"/><path class="cls-1" d="M171.71,328a3,3,0,0,1-3-3V239.72a3,3,0,0,1,3-3H229a3,3,0,0,1,3,3v5.52h2.73a3,3,0,0,1,3,3v34.09a3,3,0,0,1-3,3H232v5.53a3,3,0,0,1-3,3H197.63V325a3,3,0,0,1-3,3Zm37.11-57.14v-11H197.63v11Z"/><path class="cls-1" d="M229,239.72v8.52h5.73v34.09H229v8.53H194.63V325H171.71V239.72H229m-34.38,34.09h17.19V256.76H194.63v17.05M229,233.72h-57.3a6,6,0,0,0-6,6V325a6,6,0,0,0,6,6h22.92a6,6,0,0,0,6-6V296.86H229a6,6,0,0,0,6-6v-2.53a6,6,0,0,0,5.73-6V248.24a6,6,0,0,0-5.73-6v-2.53a6,6,0,0,0-6-6Zm-28.38,29h5.19v5.05h-5.19v-5.05Z"/><path class="cls-1" d="M355.6,328a3,3,0,0,1-3-3v-5.52H349a3,3,0,0,1-3-3v-5.52h-3.64a3,3,0,0,1-3-3v-5.53h-.63v5.53a3,3,0,0,1-3,3h-3.64v5.52a3,3,0,0,1-3,3h-3.63V325a3,3,0,0,1-3,3H302.52a3,3,0,0,1-3-3V299.38a3,3,0,0,1,3-3h3.63v-5.52a3,3,0,0,1,3-3h3.64V276.81h-3.64a3,3,0,0,1-3-3v-5.52h-3.63a3,3,0,0,1-3-3V239.72a3,3,0,0,1,3-3h19.91a3,3,0,0,1,3,3v5.52h3.63a3,3,0,0,1,3,3v5.53h3.64a3,3,0,0,1,3,3v5.52h.63v-5.52a3,3,0,0,1,3-3H346v-5.53a3,3,0,0,1,3-3h3.63v-5.52a3,3,0,0,1,3-3h19.91a3,3,0,0,1,3,3v25.57a3,3,0,0,1-3,3h-3.63v5.52a3,3,0,0,1-3,3h-3.64v11.05h3.64a3,3,0,0,1,3,3v5.52h3.63a3,3,0,0,1,3,3V325a3,3,0,0,1-3,3Z"/><path class="cls-1" d="M375.51,239.72v25.57h-6.63v8.52h-6.64v17.05h6.64v8.52h6.63V325H355.6v-8.52H349V307.9h-6.64v-8.52H335.7v8.52h-6.64v8.53h-6.63V325H302.52V299.38h6.63v-8.52h6.64V273.81h-6.64v-8.52h-6.63V239.72h19.91v8.52h6.63v8.52h6.64v8.53h6.63v-8.53H349v-8.52h6.63v-8.52h19.91m0-6H355.6a6,6,0,0,0-6,6v2.52H349a6,6,0,0,0-6,6v2.52h-.64a5.91,5.91,0,0,0-3.31,1,5.94,5.94,0,0,0-3.32-1h-.64v-2.52a6,6,0,0,0-6-6h-.63v-2.52a6,6,0,0,0-6-6H302.52a6,6,0,0,0-6,6v25.57a6,6,0,0,0,6,6h.63v2.52a6,6,0,0,0,6,6h.64v5.05h-.64a6,6,0,0,0-6,6v2.52h-.63a6,6,0,0,0-6,6V325a6,6,0,0,0,6,6h19.91a6,6,0,0,0,6-6v-2.52h.63a6,6,0,0,0,6-6V313.9h.64a5.93,5.93,0,0,0,3.32-1,5.9,5.9,0,0,0,3.31,1H343v2.53a6,6,0,0,0,6,6h.63V325a6,6,0,0,0,6,6h19.91a6,6,0,0,0,6-6V299.38a6,6,0,0,0-6-6h-.63v-2.52a6,6,0,0,0-6-6h-.64v-5.05h.64a6,6,0,0,0,6-6v-2.52h.63a6,6,0,0,0,6-6V239.72a6,6,0,0,0-6-6Z"/><path class="cls-1" d="M388.84,328a3,3,0,0,1-3-3v-5.52h-2.73a3,3,0,0,1-3-3V248.24a3,3,0,0,1,3-3h2.73v-5.52a3,3,0,0,1,3-3h57.31a3,3,0,0,1,3,3v17a3,3,0,0,1-3,3H409v11h14.19a3,3,0,0,1,3,3v17.05a3,3,0,0,1-3,3H409v11.05h37.11a3,3,0,0,1,3,3v17a3,3,0,0,1-3,3Z"/><path class="cls-1" d="M446.15,239.72v17H406v17.05h17.19v17.05H406v17h40.11V325H388.84v-8.52h-5.73V248.24h5.73v-8.52h57.31m0-6H388.84a6,6,0,0,0-6,6v2.53a6,6,0,0,0-5.73,6v68.19a6,6,0,0,0,5.73,6V325a6,6,0,0,0,6,6h57.31a6,6,0,0,0,6-6V307.9a6,6,0,0,0-6-6H412v-5h11.19a6,6,0,0,0,6-6V273.81a6,6,0,0,0-6-6H412v-5.05h34.11a6,6,0,0,0,6-6v-17a6,6,0,0,0-6-6Z"/><path class="cls-1" d="M245.5,328a3,3,0,0,1-3-3v-17a3,3,0,0,1,3-3h9.16V259.77H245.5a3,3,0,0,1-3-3v-17a3,3,0,0,1,3-3h47.25a3,3,0,0,1,3,3v17a3,3,0,0,1-3,3h-9.17v45.14h9.17a3,3,0,0,1,3,3v17a3,3,0,0,1-3,3Z"/><path class="cls-1" d="M292.75,239.72v17H280.58V307.9h12.17V325H245.5V307.9h12.16V256.76H245.5v-17h47.25m0-6H245.5a6,6,0,0,0-6,6v17a6,6,0,0,0,6,6h6.16V301.9H245.5a6,6,0,0,0-6,6V325a6,6,0,0,0,6,6h47.25a6,6,0,0,0,6-6V307.9a6,6,0,0,0-6-6h-6.17V262.76h6.17a6,6,0,0,0,6-6v-17a6,6,0,0,0-6-6Z"/><path class="cls-1" d="M453.85,328a3,3,0,0,1-3-3V239.72a3,3,0,0,1,3-3h22.92a3,3,0,0,1,3,3v65.19h21.47a3,3,0,0,1,3,3v17a3,3,0,0,1-3,3Z"/><path class="cls-1" d="M476.77,239.72V307.9h24.47V325H453.85V239.72h22.92m0-6H453.85a6,6,0,0,0-6,6V325a6,6,0,0,0,6,6h47.39a6,6,0,0,0,6-6V307.9a6,6,0,0,0-6-6H482.77V239.72a6,6,0,0,0-6-6Z"/></g><g id="Capa_2" data-name="Capa 2"><path class="cls-2" d="M71.21,178.27h.1V83.74H39c-.07.67-.16,1.14-.17,1.61a184.84,184.84,0,0,1-4.89,37c-6,26.33-15.13,51.6-26.09,76.22-.69,1.54-.66,2.48.56,3.74a105.71,105.71,0,0,1,7.08,8c21.49,27.1,35.54,57.94,45.39,90.85,2.5,8.36,4.52,16.86,6.89,25.74.11-.88.23-1.33.23-1.79Q68,268,68,211a16.51,16.51,0,0,1,3.26-32.69Z"/><path class="cls-2" d="M71.31,43.64H31.42V78H71.31Z"/><polygon class="cls-3" points="129.14 191.72 129.14 185.28 129.14 178.85 122.71 178.85 122.71 172.41 122.71 165.97 122.71 159.53 116.29 159.53 116.29 153.09 116.29 146.65 116.29 140.21 109.86 140.21 109.86 133.77 109.86 127.33 109.86 120.89 109.86 114.45 109.86 108.01 103.44 108.01 103.44 101.57 103.44 95.13 103.44 88.69 103.44 83.72 71.31 83.72 71.31 178.26 80.83 178.26 80.83 180.74 80.83 180.74 80.83 185.28 82.09 185.28 87.26 185.28 87.26 204.57 82.09 204.57 82.09 204.6 80.83 204.6 80.83 210.71 78.96 210.71 77.74 210.71 74.53 210.71 74.53 326.95 77.74 326.95 79.77 326.95 79.77 312.64 79.77 308.55 79.77 298.7 84.16 298.7 84.16 297.34 84.16 291.03 84.16 284.52 90.59 284.52 90.59 281.39 90.59 275.44 90.59 273.61 90.59 269 97.01 269 97.01 262.56 97.01 256.12 103.44 256.12 103.44 249.68 103.44 243.24 109.86 243.24 109.86 236.8 109.86 230.36 116.29 230.36 116.29 223.92 122.71 223.92 122.71 217.48 122.71 211.04 129.14 211.04 129.14 204.6 135.56 204.6 135.56 198.16 135.56 191.72 129.14 191.72"/><polygon class="cls-3" points="94.78 58.46 94.78 43.64 91.21 43.64 84.57 43.64 77.94 43.64 71.31 43.64 71.31 77.97 77.94 77.97 84.57 77.97 91.21 77.97 97.84 77.97 104.48 77.97 111.11 77.97 111.11 71.11 111.11 64.24 111.11 58.46 94.78 58.46"/><rect class="cls-3" x="101.8" y="30.87" width="19.64" height="19.64"/><rect class="cls-3" x="127.24" y="52.73" width="12.77" height="12.77"/><rect class="cls-3" x="129.7" y="157.64" width="10.96" height="10.96"/><rect class="cls-3" x="141.45" y="136.27" width="12.91" height="12.91"/><rect class="cls-3" x="123.15" y="120.26" width="8.18" height="8.18"/><rect class="cls-3" x="133.65" y="6.82" width="12.72" height="12.72"/><rect class="cls-3" x="120.07" y="16.28" width="8.13" height="8.13"/><path class="cls-4" d="M311.91,200.56a7.27,7.27,0,0,0,1.52,4.84,5.83,5.83,0,0,0,4.7,1.79,6.87,6.87,0,0,0,4.49-1.59l-7.35-12.22Q311.91,195.45,311.91,200.56Z"/><path class="cls-2" d="M318.35,181.76a8.18,8.18,0,0,1-1.47-4.21,2.84,2.84,0,0,1,1.25-2.59,7.85,7.85,0,0,1,4.07-.79,22.28,22.28,0,0,1,4.28.48c1.39.28,2.08-.23,2.08-1.52v-4.35a2.13,2.13,0,0,0-.42-1.48,3,3,0,0,0-1.45-.73,29.79,29.79,0,0,0-6.84-.69q-6.35,0-9.5,2.66a9.38,9.38,0,0,0-3.14,7.56q0,3.53,2.7,8.36l.95,1.6a13.13,13.13,0,0,0-6.05,4.83h19Z"/><path class="cls-3" d="M333.31,206.74a21.89,21.89,0,0,0,3.61-12.18,27.23,27.23,0,0,0-.19-3.67h-8.49c0,.35.09.79.18,1.34a12.89,12.89,0,0,1,.21,2,14.18,14.18,0,0,1-.54,3.77l-4.27-7.13h-19c-.18.26-.35.52-.52.8a17.7,17.7,0,0,0-2.4,9.35q0,7.4,4.11,11.12t11.16,3.73a16.2,16.2,0,0,0,9.74-3l.9,1.32a2.14,2.14,0,0,0,1.93,1.17h7a.92.92,0,0,0,1-.52,1.19,1.19,0,0,0-.21-1.14Zm-15.18.45a5.83,5.83,0,0,1-4.7-1.79,7.27,7.27,0,0,1-1.52-4.84q0-5.12,3.36-7.18l7.35,12.22A6.87,6.87,0,0,1,318.13,207.19Z"/><path class="cls-2" d="M336.71,190.68c-.28-1.2-.85-1.8-1.73-1.8h-5c-1.15,0-1.73.52-1.73,1.54a4.54,4.54,0,0,0,0,.47h8.49A1.36,1.36,0,0,0,336.71,190.68Z"/><path class="cls-2" d="M196.79,101.63v-.58c.58.1,1.13.17,1.66.22s1.09.07,1.67.07a18.26,18.26,0,0,0,10.56-3,24.08,24.08,0,0,0,7.17-7.67A35.55,35.55,0,0,0,222,80.42a47.22,47.22,0,0,0,1.31-10.78,47.88,47.88,0,0,0-.87-8.83,30.85,30.85,0,0,0-2.9-8.54,18.83,18.83,0,0,0-5.5-6.51,13.79,13.79,0,0,0-8.54-2.61,27,27,0,0,0-6.22.58,7.34,7.34,0,0,0-3.62,2,7.24,7.24,0,0,0-1.74,3.77,34.44,34.44,0,0,0-.43,6V131a33.19,33.19,0,0,0,.43,5.94,7.56,7.56,0,0,0,1.74,3.76,6.92,6.92,0,0,0,3.62,2,26.42,26.42,0,0,0,6.22.58v.58H167.69v-.58a26.51,26.51,0,0,0,6.23-.58,6.89,6.89,0,0,0,3.61-2,7.56,7.56,0,0,0,1.74-3.76,33.07,33.07,0,0,0,.44-5.94V55.46a34.32,34.32,0,0,0-.44-6,6.53,6.53,0,0,0-5.35-5.72,27.06,27.06,0,0,0-6.23-.58v-.58h41.83A28.38,28.38,0,0,1,221,44.82,26.47,26.47,0,0,1,229.86,51a27.42,27.42,0,0,1,5.72,9.26,32.06,32.06,0,0,1,2,11.44,30.8,30.8,0,0,1-2.54,12.74A29,29,0,0,1,228.2,94a30.35,30.35,0,0,1-10.28,6.15,36.74,36.74,0,0,1-12.74,2.17q-2,0-4.2-.21C199.54,102,198.14,101.82,196.79,101.63Z"/><path class="cls-2" d="M295.5,143.9v-9.85a14,14,0,0,1-3.9,4.64,24.62,24.62,0,0,1-5.43,3.11,30.29,30.29,0,0,1-6.16,1.81,34.45,34.45,0,0,1-6.07.58,23.62,23.62,0,0,1-6.52-.87,16.42,16.42,0,0,1-5.43-2.68,12.77,12.77,0,0,1-3.76-4.56,14.34,14.34,0,0,1-1.37-6.51V85a61,61,0,0,0-.29-6.58,7.32,7.32,0,0,0-1.45-3.91,6.18,6.18,0,0,0-3.62-1.88,34.3,34.3,0,0,0-6.66-.51v-.58h17.08a9.35,9.35,0,0,1,6.37,2c1.54,1.35,2.32,3.43,2.32,6.22v49.36a14.23,14.23,0,0,0,2.67,8.69c1.79,2.41,4.51,3.62,8.18,3.62a15.92,15.92,0,0,0,8.25-2.54,13.54,13.54,0,0,0,5.79-6.29V85a58.47,58.47,0,0,0-.29-6.58,7.23,7.23,0,0,0-1.44-3.91,6.21,6.21,0,0,0-3.62-1.88,34.3,34.3,0,0,0-6.66-.51v-.58h17.08a9.37,9.37,0,0,1,6.37,2c1.54,1.35,2.32,3.43,2.32,6.22v52.4q0,6.09,2,8.62c1.35,1.68,4.2,2.53,8.54,2.53v.58Z"/><path class="cls-2" d="M319.82,143.9v-.58a26.36,26.36,0,0,0,6.22-.58,6.92,6.92,0,0,0,3.62-2A7.56,7.56,0,0,0,331.4,137a33.19,33.19,0,0,0,.43-5.94V85a58.47,58.47,0,0,0-.29-6.58,7.23,7.23,0,0,0-1.44-3.91,6.21,6.21,0,0,0-3.62-1.88,34.3,34.3,0,0,0-6.66-.51v-.58h17.23a8.71,8.71,0,0,1,6.29,2.17,8.27,8.27,0,0,1,2.25,6.23,23,23,0,0,1,9.62-6.44,32.76,32.76,0,0,1,11.51-2.25A24.66,24.66,0,0,1,374,72.32a18.12,18.12,0,0,1,6.22,3.26,16.88,16.88,0,0,1,4.35,5.35,15.54,15.54,0,0,1,1.66,7.24V131a33.19,33.19,0,0,0,.43,5.94,7.56,7.56,0,0,0,1.74,3.76,7,7,0,0,0,3.62,2,26.42,26.42,0,0,0,6.22.58v.58H360.49v-.58a17.61,17.61,0,0,0,6.95-1.09,7.11,7.11,0,0,0,3.55-3.11,12.39,12.39,0,0,0,1.3-5q.22-3,.22-6.73V88.6a22.56,22.56,0,0,0-.65-5.28,15.42,15.42,0,0,0-2.1-4.85,11.91,11.91,0,0,0-3.69-3.55,10,10,0,0,0-5.29-1.37,18.89,18.89,0,0,0-8.32,2.17,19.93,19.93,0,0,0-6.87,5.21v51.39q0,6.66,2.67,8.83c1.79,1.44,4.9,2.17,9.34,2.17v.58Z"/><path class="cls-2" d="M396.83,71.52A25.71,25.71,0,0,0,405,70.15a26.64,26.64,0,0,0,7.52-3.91,22.25,22.25,0,0,0,5.65-6.15A16.19,16.19,0,0,0,420.57,52h.57V71.52h14.62v.58H421.14v58.48a26.36,26.36,0,0,0,.73,7,7,7,0,0,0,2.46,3.84,9,9,0,0,0,4.56,1.59q2.82.28,6.87.29v.58c-1.54,0-3.08,0-4.63.07s-3.09.07-4.63.07-3.55-.07-5.72-.21a29.21,29.21,0,0,1-6.22-1.09,13,13,0,0,1-5.07-2.75,6.63,6.63,0,0,1-2.1-5.21V72.1H396.83Z"/><path class="cls-2" d="M470.94,144.33a32.91,32.91,0,0,1-14-2.89,31.37,31.37,0,0,1-10.57-7.89,35.33,35.33,0,0,1-6.66-11.65,44.74,44.74,0,0,1,0-28.38,35.43,35.43,0,0,1,6.66-11.65A31.37,31.37,0,0,1,456.9,74,35.55,35.55,0,0,1,485,74a31.37,31.37,0,0,1,10.57,7.89,35.43,35.43,0,0,1,6.66,11.65,44.74,44.74,0,0,1,0,28.38,35.33,35.33,0,0,1-6.66,11.65A31.37,31.37,0,0,1,485,141.44,32.91,32.91,0,0,1,470.94,144.33Zm-1.88-.72a12.82,12.82,0,0,0,7.38-2.17,20.07,20.07,0,0,0,5.5-5.72,40.34,40.34,0,0,0,4-8,69.7,69.7,0,0,0,2.68-9,78.3,78.3,0,0,0,1.45-8.76,71.48,71.48,0,0,0,.43-7.24,72.58,72.58,0,0,0-.72-9.55A41.62,41.62,0,0,0,487.08,83a22.15,22.15,0,0,0-5.5-8,12.87,12.87,0,0,0-9.05-3.25,13.47,13.47,0,0,0-10.35,4.48,33.1,33.1,0,0,0-6.51,10.79,62.74,62.74,0,0,0-3.4,13.1,79.49,79.49,0,0,0-1,11.43,74.87,74.87,0,0,0,.73,9.63,44.65,44.65,0,0,0,2.67,10.57,24.44,24.44,0,0,0,5.43,8.46A12.15,12.15,0,0,0,469.06,143.61Z"/><path class="cls-3" d="M194.63,325H171.71V239.72H229v8.52h5.73v34.09H229v8.53H194.63Zm0-51.14h17.19v-17H194.63Z"/><path class="cls-3" d="M302.52,299.38h6.63v-8.52h6.64V273.81h-6.64v-8.52h-6.63V239.72h19.91v8.52h6.63v8.53h6.64v8.52h6.63v-8.52H349v-8.53h6.63v-8.52h19.91v25.57h-6.63v8.52h-6.64v17.05h6.64v8.52h6.63V325H355.6v-8.52H349V307.9h-6.64v-8.52H335.7v8.52h-6.64v8.53h-6.63V325H302.52Z"/><path class="cls-3" d="M388.84,316.43h-5.73V248.24h5.73v-8.52h57.31v17H406v17h17.19v17.05H406v17h40.11V325H388.84Z"/><polygon class="cls-3" points="292.75 256.76 292.75 239.72 245.5 239.72 245.5 256.76 257.66 256.76 257.66 307.9 245.5 307.9 245.5 324.95 292.75 324.95 292.75 307.9 280.58 307.9 280.58 256.76 292.75 256.76"/><polygon class="cls-3" points="498.03 307.9 491.21 307.9 476.77 307.9 476.77 239.72 453.85 239.72 453.85 324.95 491.21 324.95 498.03 324.95 501.24 324.95 501.24 307.9 498.03 307.9"/></g></svg>